<?xml version="1.0" encoding="UTF-8" standalone="no"?>
<!-- Created with Inkscape (http://www.inkscape.org/) -->

<svg
   xmlns:dc="http://purl.org/dc/elements/1.1/"
   xmlns:cc="http://creativecommons.org/ns#"
   xmlns:rdf="http://www.w3.org/1999/02/22-rdf-syntax-ns#"
   xmlns:svg="http://www.w3.org/2000/svg"
   xmlns="http://www.w3.org/2000/svg"
   version="1.1"
   width="303.3071"
   height="191.26772"
   id="svg2">
  <defs
     id="defs4" />
  <metadata
     id="metadata7">
    <rdf:RDF>
      <cc:Work
         rdf:about="">
        <dc:format>image/svg+xml</dc:format>
        <dc:type
           rdf:resource="http://purl.org/dc/dcmitype/StillImage" />
        <dc:title></dc:title>
      </cc:Work>
    </rdf:RDF>
  </metadata>
  <g
     transform="translate(0,-861.09447)"
     id="layer1">
    <path
       d="m 57.677249,861.09447 0,191.26773 245.629851,0 0,-191.26773 -245.629851,0 z"
       id="rect3988"
       style="color:#000000;fill:#2a58d6;fill-opacity:1;fill-rule:nonzero;stroke:none;stroke-width:1;marker:none;visibility:visible;display:inline;overflow:visible;enable-background:accumulate" />
    <path
       d="m 0,861.09447 0,191.26773 82.973738,0 37.270782,-191.26773 -120.24452,0 z"
       id="rect3985"
       style="color:#000000;fill:#d62a2a;fill-opacity:1;stroke:none;stroke-width:0.80000001;marker:none;visibility:visible;display:inline;overflow:visible;enable-background:accumulate" />
    <path
       d="M 82.973738,1052.3622 120.24452,861.09447"
       id="path4023"
       style="color:#000000;fill:none;stroke:#000000;stroke-width:0.80299997;stroke-linecap:square;stroke-miterlimit:4;stroke-opacity:1;stroke-dasharray:none;marker:none;visibility:visible;display:inline;overflow:visible;enable-background:accumulate" />
    <path
       d="m 30.856377,870.66231 c -8.871619,0 -17.613085,7.29958 -19.365502,16.1712 l -2.6479147,13.40507 c -1.7524165,8.87162 4.1052497,16.17119 12.9768867,16.17119 l 17.341477,0 c 8.871636,0 17.613087,-7.29957 19.365503,-16.17119 l 1.933391,-9.78782 -10.213384,0 -15.320075,0 -2.017457,10.21338 15.320079,0 c -0.829313,3.18171 -3.80081,5.53225 -7.050596,5.53225 l -17.341479,0 c -3.390064,0 -5.450607,-2.56771 -4.78096,-5.95781 l 2.647916,-13.40507 c 0.669648,-3.39009 3.744577,-5.95781 7.134658,-5.95781 l 17.341478,0 c 3.284874,0 5.329971,2.40485 4.844003,5.63864 l 10.213383,0 c 1.545392,-8.72254 -4.278105,-15.85203 -13.039929,-15.85203 l -17.341478,0 z"
       id="rect2985"
       style="font-size:medium;font-style:normal;font-variant:normal;font-weight:normal;font-stretch:normal;text-indent:0;text-align:start;text-decoration:none;line-height:normal;letter-spacing:normal;word-spacing:normal;text-transform:none;direction:ltr;block-progression:tb;writing-mode:lr-tb;text-anchor:start;baseline-shift:baseline;color:#000000;fill:#ffffff;fill-opacity:1;stroke:none;stroke-width:3;marker:none;visibility:visible;display:inline;overflow:visible;enable-background:accumulate;font-family:Sans;-inkscape-font-specification:Sans" />
    <path
       d="m 67.527358,870.66231 -1.008729,5.1067 -3.509531,17.76703 -3.50953,17.76704 -1.00874,5.10669 5.106697,0 39.470475,0 5.1067,0 2.01746,-10.21338 -5.10669,0 -34.363789,0 1.534105,-7.76644 34.895724,0 2.01746,-10.21338 -34.895725,0 1.450049,-7.34087 34.363796,0 5.10668,0 2.01746,-10.21339 -5.1067,0 -39.470475,0 -5.106697,0 z"
       id="rect2985-1-2"
       style="font-size:medium;font-style:normal;font-variant:normal;font-weight:normal;font-stretch:normal;text-indent:0;text-align:start;text-decoration:none;line-height:normal;letter-spacing:normal;word-spacing:normal;text-transform:none;direction:ltr;block-progression:tb;writing-mode:lr-tb;text-anchor:start;baseline-shift:baseline;color:#000000;fill:#ffffff;fill-opacity:1;stroke:none;stroke-width:3;marker:none;visibility:visible;display:inline;overflow:visible;enable-background:accumulate;font-family:Sans;-inkscape-font-specification:Sans" />
    <path
       d="m 119.83759,870.66231 -1.00873,5.1067 -7.01906,35.53407 -1.00874,5.10669 10.21338,0 1.00874,-5.10669 5.42192,-27.44847 19.24724,30.74654 1.13219,1.80862 2.44696,0 5.10669,0 5.10669,0 1.00875,-5.10669 7.01904,-35.53407 1.00874,-5.1067 -10.21338,0 -1.00875,5.1067 -5.44291,27.55486 -19.14086,-30.74655 -1.21757,-1.91501 -2.44694,0 -5.10671,0 -5.10669,0 z"
       id="rect2985-1-3"
       style="font-size:medium;font-style:normal;font-variant:normal;font-weight:normal;font-stretch:normal;text-indent:0;text-align:start;text-decoration:none;line-height:normal;letter-spacing:normal;word-spacing:normal;text-transform:none;direction:ltr;block-progression:tb;writing-mode:lr-tb;text-anchor:start;baseline-shift:baseline;color:#000000;fill:#ffffff;fill-opacity:1;stroke:none;stroke-width:3;marker:none;visibility:visible;display:inline;overflow:visible;enable-background:accumulate;font-family:Sans;-inkscape-font-specification:Sans" />
    <path
       d="m 74.099384,919.25814 c -8.871617,0 -17.19682,5.19225 -18.949235,14.06387 -1.752416,8.87163 4.58121,13.77966 13.39973,14.03051 l 2.659734,0 12.022009,0 2.659735,0 c 3.390093,0 5.873462,0.42702 5.203816,3.81712 -0.669647,3.39009 -3.304317,3.72897 -6.694399,3.72897 l -17.341478,0 c -3.390093,0 -5.4506,-2.56771 -4.780954,-5.95781 l 0.08407,-0.42556 -10.213394,0 -0.08407,0.42556 c -1.752415,8.87162 4.105271,16.17119 12.976889,16.17119 l 17.341478,0 c 8.871619,0 17.172826,-5.07073 18.925235,-13.94235 1.75242,-8.87162 -4.527684,-14.03266 -13.399735,-14.03051 l -2.659735,0 -12.022009,0 -2.659734,0 c -3.390082,0 -5.873452,-0.42702 -5.203805,-3.81712 0.669647,-3.39009 3.3283,-3.85048 6.718394,-3.85048 l 17.341478,0 c 3.390082,0 5.450612,2.56772 4.780953,5.9578 l -0.08407,0.42557 10.213383,0 0.084,-0.42557 c 1.75243,-8.87161 -4.10526,-16.17119 -12.97688,-16.17119 z"
       id="path3884"
       style="font-size:medium;font-style:normal;font-variant:normal;font-weight:normal;font-stretch:normal;text-indent:0;text-align:start;text-decoration:none;line-height:normal;letter-spacing:normal;word-spacing:normal;text-transform:none;direction:ltr;block-progression:tb;writing-mode:lr-tb;text-anchor:start;baseline-shift:baseline;color:#000000;fill:#ffffff;fill-opacity:1;stroke:none;stroke-width:3;marker:none;visibility:visible;display:inline;overflow:visible;enable-background:accumulate;font-family:Sans;-inkscape-font-specification:Sans" />
    <path
       d="m 178.71975,919.25814 c -8.87165,0 -17.61309,7.29958 -19.3655,16.17119 l -2.62689,13.29869 c -1.75241,8.87162 4.10527,16.17119 12.97689,16.17119 l 17.34148,0 c 8.87162,0 17.61309,-7.29957 19.3655,-16.17119 l 0.39927,-2.02139 -10.21339,0 -0.39928,2.02139 c -0.66965,3.39009 -3.74456,5.9578 -7.13465,5.9578 l -17.34148,0 c -3.39009,0 -5.45061,-2.56771 -4.78096,-5.9578 l 2.62689,-13.29869 c 0.66965,-3.39002 3.74461,-5.9578 7.13467,-5.9578 l 17.34148,0 c 3.39006,0 5.4506,2.56778 4.78095,5.9578 l -0.16818,0.85113 10.21338,0 0.16818,-0.85113 c 1.75242,-8.87161 -4.10523,-16.17119 -12.97689,-16.17119 l -17.34147,0 z"
       id="rect3860"
       style="font-size:medium;font-style:normal;font-variant:normal;font-weight:normal;font-stretch:normal;text-indent:0;text-align:start;text-decoration:none;line-height:normal;letter-spacing:normal;word-spacing:normal;text-transform:none;direction:ltr;block-progression:tb;writing-mode:lr-tb;text-anchor:start;baseline-shift:baseline;color:#000000;fill:#ffffff;fill-opacity:1;stroke:none;stroke-width:3;marker:none;visibility:visible;display:inline;overflow:visible;enable-background:accumulate;font-family:Sans;-inkscape-font-specification:Sans" />
    <path
       d="m 110.23841,919.25814 -1.00871,5.10671 -3.50955,17.76703 -3.50953,17.76703 -1.00873,5.1067 5.10669,0 39.47041,0 5.10669,0 2.01749,-10.2134 -5.1067,0 -34.36374,0 1.53412,-7.76641 34.89565,0 2.01749,-10.21339 -34.89569,0 1.45005,-7.34088 34.36373,0 5.10668,0 2.01746,-10.21339 -5.10671,0 -39.4704,0 -5.1067,0 z"
       id="path3957"
       style="font-size:medium;font-style:normal;font-variant:normal;font-weight:normal;font-stretch:normal;text-indent:0;text-align:start;text-decoration:none;line-height:normal;letter-spacing:normal;word-spacing:normal;text-transform:none;direction:ltr;block-progression:tb;writing-mode:lr-tb;text-anchor:start;baseline-shift:baseline;color:#000000;fill:#ffffff;fill-opacity:1;stroke:none;stroke-width:3;marker:none;visibility:visible;display:inline;overflow:visible;enable-background:accumulate;font-family:Sans;-inkscape-font-specification:Sans" />
    <g
       transform="matrix(1.118941,0,-0.15839487,0.87601417,-9.0774833,880.50825)"
       id="text3992"
       style="font-size:40px;font-style:normal;font-variant:normal;font-weight:normal;font-stretch:normal;line-height:125%;letter-spacing:0px;word-spacing:0px;fill:#ffffff;fill-opacity:1;stroke:none;font-family:Haettenschweiler;-inkscape-font-specification:Haettenschweiler">
      <path
         d="m 60.084648,159.09436 -6.09375,0 -1.035156,-7.51953 -2.753906,0 -1.035157,7.51953 -6.09375,0 4.609375,-28.00781 7.792969,0 z m -7.636719,-11.40625 -0.878906,-8.35937 -0.839844,8.35937 z"
         id="path3997" />
      <path
         d="m 74.498711,140.8717 -5.605469,0 0,-5.54687 c -9e-6,-0.45571 -0.279956,-0.68357 -0.839844,-0.68359 -0.585944,2e-5 -0.878913,0.22788 -0.878906,0.68359 l 0,19.43359 c -7e-6,0.45574 0.292962,0.6836 0.878906,0.6836 0.559888,0 0.839835,-0.22786 0.839844,-0.6836 l 0,-6.91406 5.605469,0 0,7.10938 c -1.5e-5,1.32812 -0.651056,2.39258 -1.953125,3.19335 -1.302095,0.80079 -2.773447,1.20118 -4.414063,1.20118 -4.739586,0 -7.109376,-1.67969 -7.109375,-5.03907 l 0,-18.02734 c -1e-6,-3.63279 2.369789,-5.44919 7.109375,-5.44922 4.24478,3e-5 6.367173,1.65367 6.367188,4.96094 z"
         id="path3999" />
      <path
         d="m 89.342461,140.8717 -5.605469,0 0,-5.54687 c -9e-6,-0.45571 -0.279956,-0.68357 -0.839844,-0.68359 -0.585944,2e-5 -0.878913,0.22788 -0.878906,0.68359 l 0,19.43359 c -7e-6,0.45574 0.292962,0.6836 0.878906,0.6836 0.559888,0 0.839835,-0.22786 0.839844,-0.6836 l 0,-6.91406 5.605469,0 0,7.10938 c -1.5e-5,1.32812 -0.651056,2.39258 -1.953125,3.19335 -1.302095,0.80079 -2.773447,1.20118 -4.414063,1.20118 -4.739586,0 -7.109376,-1.67969 -7.109375,-5.03907 l 0,-18.02734 c -10e-7,-3.63279 2.369789,-5.44919 7.109375,-5.44922 4.24478,3e-5 6.367173,1.65367 6.367188,4.96094 z"
         id="path4001" />
      <path
         d="m 102.76043,159.09436 -12.031251,0 0,-28.00781 11.953121,0 0,3.61328 -5.800777,0 0,7.55859 5.234377,0 0,3.39844 -5.234377,0 0,9.84375 5.878907,0 z"
         id="path4003" />
      <path
         d="m 103.75652,147.88342 5.60547,0 0,6.42578 c 0,0.63803 0.38411,0.95704 1.15235,0.95704 0.74217,0 1.11327,-0.31901 1.11328,-0.95704 l 0,-3.32031 c -10e-6,-1.01561 -0.67709,-2.20702 -2.03125,-3.57422 -2.61719,-2.53905 -4.2448,-4.24477 -4.88282,-5.11718 -0.63802,-0.87238 -0.95703,-1.82941 -0.95703,-2.8711 l 0,-3.14453 c 0,-3.63279 2.36979,-5.44919 7.10938,-5.44922 4.24478,3e-5 6.36717,1.65367 6.36719,4.96094 l 0,4.84375 -5.60547,0 0,-5.15625 c -10e-6,-0.55987 -0.306,-0.83982 -0.91797,-0.83984 -0.71615,2e-5 -1.07423,0.54038 -1.07422,1.62109 l 0.11719,1.81641 c -10e-6,1.04168 0.69009,2.25262 2.07031,3.63281 2.56509,2.46095 4.19595,4.1797 4.89258,5.15625 0.6966,0.97657 1.0449,2.08334 1.04492,3.32031 l 0,3.57422 c -2e-5,3.72396 -2.37631,5.58594 -7.12891,5.58594 -4.58333,0 -6.875,-1.69271 -6.875,-5.07813 z"
         id="path4005" />
      <path
         d="m 119.06902,147.88342 5.60547,0 0,6.42578 c 0,0.63803 0.38411,0.95704 1.15235,0.95704 0.74217,0 1.11327,-0.31901 1.11328,-0.95704 l 0,-3.32031 c -10e-6,-1.01561 -0.67709,-2.20702 -2.03125,-3.57422 -2.61719,-2.53905 -4.2448,-4.24477 -4.88282,-5.11718 -0.63802,-0.87238 -0.95703,-1.82941 -0.95703,-2.8711 l 0,-3.14453 c 0,-3.63279 2.36979,-5.44919 7.10938,-5.44922 4.24478,3e-5 6.36717,1.65367 6.36719,4.96094 l 0,4.84375 -5.60547,0 0,-5.15625 c -10e-6,-0.55987 -0.306,-0.83982 -0.91797,-0.83984 -0.71615,2e-5 -1.07423,0.54038 -1.07422,1.62109 l 0.11719,1.81641 c -10e-6,1.04168 0.69009,2.25262 2.07031,3.63281 2.56509,2.46095 4.19595,4.1797 4.89258,5.15625 0.6966,0.97657 1.0449,2.08334 1.04492,3.32031 l 0,3.57422 c -2e-5,3.72396 -2.37631,5.58594 -7.12891,5.58594 -4.58333,0 -6.875,-1.69271 -6.875,-5.07813 z"
         id="path4007" />
      <path
         d="m 154.96746,140.8717 -5.60547,0 0,-5.54687 c -1e-5,-0.45571 -0.27995,-0.68357 -0.83984,-0.68359 -0.58595,2e-5 -0.87891,0.22788 -0.87891,0.68359 l 0,19.43359 c 0,0.45574 0.29296,0.6836 0.87891,0.6836 0.55989,0 0.83983,-0.22786 0.83984,-0.6836 l 0,-6.91406 5.60547,0 0,7.10938 c -10e-6,1.32812 -0.65105,2.39258 -1.95312,3.19335 -1.3021,0.80079 -2.77345,1.20118 -4.41407,1.20118 -4.73958,0 -7.10937,-1.67969 -7.10937,-5.03907 l 0,-18.02734 c 0,-3.63279 2.36979,-5.44919 7.10937,-5.44922 4.24478,3e-5 6.36718,1.65367 6.36719,4.96094 z"
         id="path4009" />
      <path
         d="m 172.97527,159.09436 -6.09375,0 -1.03515,-7.51953 -2.75391,0 -1.03516,7.51953 -6.09375,0 4.60938,-28.00781 7.79297,0 z m -7.63672,-11.40625 -0.8789,-8.35937 -0.83985,8.35937 z"
         id="path4011" />
      <path
         d="m 189.12762,159.13342 -6.15235,0 c -0.66407,-0.79427 -0.9961,-3.04687 -0.99609,-6.75781 l 0,-0.0391 0.0391,-1.67969 c 0.0391,-2.33072 0.0586,-3.52212 0.0586,-3.57422 -10e-6,-0.95051 -0.63803,-1.42577 -1.91407,-1.42578 l 0,13.4375 -6.15234,0 0,-28.00781 7.59766,0 c 1.73176,3e-5 3.23892,0.39716 4.52148,1.1914 1.28254,0.7943 1.92381,2.05081 1.92383,3.76954 l 0,3.35937 c -2e-5,2.1745 -1.26955,3.64585 -3.8086,4.41406 2.55207,0.59898 3.82811,2.14194 3.82813,4.62891 l -0.0977,3.06641 c -1e-5,4.47917 0.3841,7.01823 1.15235,7.61718 z m -7.05078,-18.35937 0,-4.60938 c -1e-5,-0.97654 -0.63803,-1.46482 -1.91407,-1.46484 l 0,7.55859 c 1.27604,2e-5 1.91406,-0.49477 1.91407,-1.48437 z"
         id="path4013" />
      <path
         d="m 189.8698,159.09436 0,-28.00781 7.65625,0 c 1.66666,3e-5 3.15103,0.4525 4.45313,1.35742 1.30207,0.90497 1.95311,2.29495 1.95312,4.16992 l 0,16.95313 c -1e-5,1.74479 -0.60873,3.10221 -1.82617,4.07226 -1.21746,0.97005 -2.73113,1.45508 -4.54101,1.45508 z m 7.8711,-5.07812 0,-17.85157 c -1e-5,-0.97654 -0.57293,-1.46482 -1.71875,-1.46484 l 0,20.80078 c 1.14582,0 1.71874,-0.49479 1.71875,-1.48437 z"
         id="path4015" />
    </g>
    <path
       d="m 255.26555,183.13599 0,-176.4231438 42.07285,88.2115718 z"
       transform="translate(0,861.09447)"
       id="path4036"
       style="fill:#ffffff;fill-opacity:1;stroke:none" />
  </g>
</svg>
